<svg id="Capa_1" enable-background="new 0 0 512 512" height="512" viewBox="0 0 512 512" width="512" xmlns="http://www.w3.org/2000/svg"><g><g><g clip-rule="evenodd" fill-rule="evenodd"><path d="m7.5 120.001v264.499h45v-279.499h-30c-8.284 0-15 6.716-15 15z" fill="#e4ecf4"/><path d="m459.501 105.001v279.499h44.999v-264.499c0-8.284-6.716-15-15-15z" fill="#e4ecf4"/><path d="m7.5 384.5v22.5c0 8.284 6.716 15 15 15h196 75 196c8.284 0 15-6.716 15-15v-22.5c-165.667 0-331.333 0-497 0z" fill="#9c9c9f"/><path d="m203.5 467h-52.5c-8.284 0-15 6.716-15 15v22.5h240v-22.5c0-8.284-6.716-15-15-15h-52.5l-15-45h-75z" fill="#9c9c9f"/><path d="m7.5 384.5v22.5c0 8.284 6.716 15 15 15h22.5c-8.284 0-15-6.716-15-15v-22.5z" fill="#7e7d83"/><path d="m173.5 467h-22.5c-8.284 0-15 6.716-15 15v22.5h22.5v-22.5c0-8.284 6.716-15 15-15zm67.5-45h-22.5l-15 45h22.5z" fill="#7e7d83"/><path d="m7.5 120.001v264.499h22.5v-264.499c0-8.284 6.716-15 15-15h-22.5c-8.284 0-15 6.716-15 15z" fill="#c6daec"/><path d="m459.501 105.001h22.5v279.499h-22.5z" fill="#c6daec"/><path d="m310.196 307.394c-16.723 6.609-32.694 14.713-32.694 32.694v44.412h44.999v-24.521l15-27.979h62l15 27.979v24.521h44.999v-44.411c0-17.98-15.972-26.086-32.695-32.694l-39.727-15.7c-11.708 5.461-25.445 5.465-37.152-.002-.21.21-36.092 14.264-39.73 15.701z" fill="#afd1f2"/><path d="m337.501 332-15 27.979v24.521h92v-24.521l-15-27.979z" fill="#f7eba4"/><path d="m324.249 251.555c0 24.378 19.953 44.253 44.252 44.253 24.3 0 44.252-19.875 44.252-44.253v-16.476h-88.504z" fill="#fedbad"/><path d="m324.249 175.08h88.504v59.999h-88.504z" fill="#afd1f2"/><path d="m324.001 145.08c-8.25 0-15 6.75-15 15s6.75 15 15 15h88.753c8.393 0 15.248-6.54 15.248-15 0-8.25-6.75-15-15-15z" fill="#afd1f2"/><path d="m202.499 105.486v32c0 16.5 13.5 30 30 30s30-13.5 30-30v-32c0-16.5-13.5-30-30-30-16.501 0-30 13.5-30 30z" fill="#9c9c9f"/><path d="m52.5 105.001v279.499h225.002v-44.411c0-17.982 15.972-26.086 32.694-32.694l39.727-15.7c-15.126-7.055-25.674-22.425-25.674-40.139v-16.476-60h-.248c-8.25 0-15-6.75-15-15s6.75-15 15-15h89.001c8.25 0 15 6.75 15 15s-6.75 15-15 15h-.248v59.999 16.476c0 17.715-10.548 33.085-25.674 40.139l39.727 15.7c16.723 6.608 32.695 14.714 32.695 32.694v-235.087-97.501h-407.002zm209.998 32.485c0 16.5-13.5 30-30 30s-30-13.5-30-30v-32c0-16.5 13.5-30 30-30s30 13.5 30 30z" fill="#e4ecf4"/><path d="m52.5 7.5h22.5v377h-22.5z" fill="#c6daec"/><path d="m202.499 105.486v32c0 16.5 13.5 30 30 30 3.973 0 7.771-.785 11.25-2.204-10.968-4.474-18.75-15.269-18.75-27.796v-32c0-12.527 7.782-23.323 18.75-27.797-3.478-1.419-7.277-2.203-11.25-2.203-16.501 0-30 13.5-30 30z" fill="#7e7d83"/><path d="m324.001 145.08c-8.25 0-15 6.75-15 15s6.75 15 15 15h22.5c-8.25 0-14.999-6.75-14.999-15s6.75-15 14.999-15z" fill="#99c5f2"/><path d="m324.249 175.08h22.5v59.999h-22.5z" fill="#99c5f2"/><path d="m324.249 251.555c0 24.378 19.953 44.253 44.252 44.253 3.882 0 7.653-.51 11.25-1.462-18.915-5.007-33.003-22.308-33.003-42.791v-16.476h-22.5v16.476z" fill="#fab684"/><path d="m310.196 307.394c-16.723 6.609-32.694 14.713-32.694 32.694v44.412h22.5v-44.411c0-17.982 15.972-26.086 32.695-32.694 2.441-.965 19.397-7.608 30.355-11.94-4.51-.558-8.946-1.811-13.124-3.762-.212.21-36.094 14.264-39.732 15.701z" fill="#99c5f2"/></g><g><path d="m437.001 97.5h-15v-52.5h-37.5v-15h52.5zm-67.5-52.5h-15v-15h15z" fill="#fff"/></g><g><path d="m120 44.999h-15v-15h15zm-30.001 0h-15v-15h15z" fill="#fff"/></g></g><g><path d="m15 120.001c0-4.136 3.365-7.5 7.5-7.5h22.5v249.499h15v-347h52.499v-15h-67.499v97.501h-22.5c-12.407 0-22.5 10.094-22.5 22.5v204.499h15z"/><path d="m489.5 97.501h-22.5v-97.501h-339.5v15h324.5v280.089h15v-182.588h22.5c4.136 0 7.5 3.364 7.5 7.5v37.499h15v-37.499c0-12.406-10.094-22.5-22.5-22.5z"/><path d="m497 377h-30v-36.911c0-24.875-24.354-34.5-37.438-39.67l-26.429-10.444c10.505-9.479 17.12-23.19 17.12-38.419v-8.976-7.5-53.706c8.858-3.025 15.248-11.425 15.248-21.294 0-12.406-10.094-22.5-22.5-22.5h-89c-12.406 0-22.5 10.093-22.5 22.5 0 9.869 6.39 18.269 15.248 21.294v53.706 7.5 8.976c0 15.229 6.615 28.94 17.12 38.419l-26.429 10.445c-11.677 4.615-32.315 12.787-36.622 32.17h-83.319v15h82.503v29.41h-255.002v-37.499h-15v67.499c0 12.407 10.094 22.5 22.5 22.5h185.594l-10 30h-47.094c-12.406 0-22.5 10.093-22.5 22.5v30h67.499v-15h-52.499v-15c0-4.136 3.364-7.5 7.5-7.5h90v-15h-27.094l10-30h64.188l10 30h-12.094v15h75c4.136 0 7.5 3.364 7.5 7.5v15h-157.5v15h172.5v-30c0-12.407-10.094-22.5-22.5-22.5h-47.094l-10-30h185.594c12.407 0 22.5-10.094 22.5-22.5v-234.5h-15zm-45-36.911v36.911h-30v-18.904l-15-27.979v-22.485l17.048 6.737c17.704 6.996 27.952 13.447 27.952 25.72zm-59.999-15.589h-47v-22.797l4.812-1.902c5.801 2.255 12.1 3.506 18.689 3.506 6.588 0 12.886-1.251 18.687-3.506l4.813 1.902v22.797zm-68-171.919h89c4.136 0 7.5 3.364 7.5 7.5s-3.364 7.5-7.5 7.5h-37v15h29.252v45h-73.504v-45h29.252v-15h-37c-4.135 0-7.5-3.364-7.5-7.5s3.365-7.5 7.5-7.5zm7.748 98.975v-8.976h73.504v8.976c0 20.266-16.487 36.752-36.752 36.752s-36.752-16.487-36.752-36.752zm-46.747 88.533c0-12.272 10.249-18.724 27.951-25.72l17.048-6.738v22.485l-15 27.979v18.905h-30v-36.911zm204.498 74.411h-467c-4.136 0-7.5-3.365-7.5-7.5v-15h346.001v-15h-31v-15.137l11.989-22.363h53.022l11.989 22.362v15.138h-31v15h120.999v15c0 4.135-3.365 7.5-7.5 7.5z"/><path d="m256 459.5h15v15h-15z"/><path d="m90 332.589h52.499v15h-52.499z"/><path d="m97.5 75.486v62c0 18.11 12.904 33.261 30 36.745v127.754h15v-127.754c17.096-3.484 30-18.635 30-36.745v-62h-15v62c0 9.778-6.271 18.114-15 21.21v-83.21h-15v83.21c-8.729-3.096-15-11.432-15-21.21v-62z"/><path d="m269.999 113.986v-8.5c0-20.678-16.822-37.5-37.5-37.5s-37.5 16.822-37.5 37.5v32c0 18.11 12.904 33.261 30 36.745v127.754h15v-127.754c17.096-3.484 30-18.635 30-36.745v-8.5h-15v8.5c0 12.407-10.093 22.5-22.5 22.5s-22.5-10.093-22.5-22.5v-32c0-12.407 10.093-22.5 22.5-22.5s22.5 10.093 22.5 22.5v8.5z"/><path d="m157.499 332.589h14.999v15h-14.999z"/><path d="m361.071 77.581h45v15h-45z"/><path d="m331.071 77.581h15v15h-15z"/><path d="m331.071 107.581h15v15h-15z"/><path d="m361.071 107.581h45v15h-45z"/></g></g></svg>